<svg xmlns="http://www.w3.org/2000/svg" width="234" height="48" viewBox="0 0 234 48">
  <rect width="234" height="48" fill="#000000" rx="24"/>
  <path fill="#ffffff" d="M42.2 16.4h-3.6v-3.4c0-.9-.7-1.6-1.6-1.6-.9 0-1.6.7-1.6 1.6v3.4h-3.4c-.9 0-1.6.7-1.6 1.6 0 .9.7 1.6 1.6 1.6h3.4v3.4c0 .9.7 1.6 1.6 1.6.9 0 1.6-.7 1.6-1.6v-3.4h3.6c.9 0 1.6-.7 1.6-1.6 0-.9-.7-1.6-1.6-1.6z" opacity="0"/>
  <g transform="translate(18 12)">
    <path fill="#4285F4" d="M22.7 12.3c0-.8-.1-1.5-.2-2.2H12.3v4.2h5.8c-.3 1.5-1.1 2.7-2.3 3.5v2.9h3.7c2.2-2 3.4-5 3.4-8.4z"/>
    <path fill="#34A853" d="M12.3 22.9c3.2 0 5.8-1.1 7.7-2.9l-3.7-2.9c-1 .7-2.3 1.1-4 1.1-3.1 0-5.7-2.1-6.6-4.9H2v3c2 4 5.9 6.6 10.3 6.6z"/>
    <path fill="#FBBC05" d="M5.7 13.3c-.2-.7-.3-1.5-.3-2.3s.1-1.6.3-2.3V5.7H2c-.6 1.4-1 2.9-1 4.5 0 1.7.4 3.2 1 4.5l3.7-1.4z"/>
    <path fill="#EA4335" d="M12.3 4.1c1.7 0 3.3.6 4.5 1.7l3.4-3.4C18.1.9 15.4 0 12.3 0 7.9 0 4 2.6 2 6.6l3.7 2.3c.9-2.8 3.5-4.8 6.6-4.8z"/>
  </g>
  <text x="50" y="29.5" fill="#ffffff" font-family="Roboto, Arial, sans-serif" font-size="16px" font-weight="500" letter-spacing="0.2px">Añadir a Google Wallet</text>
</svg>
